# xmcd
#
# Track frame offsets:
#	150
#	17440
#	32740
#	48332
#	61295
#	77230
#	91682
#	106867
#	122817
#	139082
#	156590
#	173432
#	190310
#	205547
#	219752
#
# Disc length: 3100 seconds
#
# Revision: 2
# Processed by: cddbd v1.5.2PL0 Copyright (c) Steve Scherf et al.
# Submitted via: audiograbber 1.83.01
#
DISCID=ba0c1a0f
DTITLE=MM6181 - Music Maestro Top Country Hits (MM)
DYEAR=1980
DGENRE=Country
TTITLE0=Vince Gill - Pretty Little Adriana
TTITLE1=Kevin Sharp - Nobody Knows
TTITLE2=Tracy Lawrence - Is That A Tear
TTITLE3=Jo Dee Messina - Do You Wanna Make Something Of It
TTITLE4=Paul Brandt - I Meant To Do That
TTITLE5=Lonestar - Heartbroke Everyday
TTITLE6=Deryl Dodd - That's How I Got To Memphis
TTITLE7=Billy Dean - I Wouldn't Be A Man
TTITLE8=Travis Tritt - Where Corn Don't Grow
TTITLE9=Toby Keith - Me Too
TTITLE10=Marty Stuart - You Can't Stop Love
TTITLE11=Ty Herndon - She Want To Be Wanted Again
TTITLE12=Blackhawk - King Of The World
TTITLE13=Ray Vega - Reemember When
TTITLE14=Mila Mason - That's Enough Of That
EXTD=
EXTT0=
EXTT1=
EXTT2=
EXTT3=
EXTT4=
EXTT5=
EXTT6=
EXTT7=
EXTT8=
EXTT9=
EXTT10=
EXTT11=
EXTT12=
EXTT13=
EXTT14=
PLAYORDER=
